<svg width="18" height="18" viewBox="0 0 390 412" fill="none" xmlns="http://www.w3.org/2000/svg">
<path fill-rule="evenodd" clip-rule="evenodd" d="M82.5563 237.365L1.94221 251.775C1.94221 251.775 133.123 145.236 168.99 71.4555L37.1529 3.27112C37.1529 3.27112 5.29456 -9.4004 1.6194 25.0466C-2.05576 59.4935 1.81728 267.225 1.81728 267.225L82.5563 237.365Z" fill="white"/>
<path fill-rule="evenodd" clip-rule="evenodd" d="M210.073 105.383V90.3928L379.869 184.21C379.869 184.21 405.127 208.454 371.676 230.919C338.225 253.384 45.8568 407.061 45.8568 407.061C45.8568 407.061 12.4264 424.889 0.526367 386.365L210.073 105.383Z" fill="white"/>
<path fill-rule="evenodd" clip-rule="evenodd" d="M238.548 12.6748C238.548 12.6748 262.733 71.7453 2.14003 241.362L0.526367 386.745C0.526367 386.745 290.989 230.769 238.548 12.6748Z" fill="white"/>
</svg>
